<?xml version="1.0" encoding="utf-8"?>
<!-- Generator: Adobe Illustrator 24.1.0, SVG Export Plug-In . SVG Version: 6.00 Build 0)  -->
<svg version="1.1" id="Layer_1" xmlns="http://www.w3.org/2000/svg" xmlns:xlink="http://www.w3.org/1999/xlink" x="0px" y="0px"
	 viewBox="0 0 163 55" style="enable-background:new 0 0 163 55;" xml:space="preserve">
<style type="text/css">
	.st0{opacity:0.7;}
	.st1{fill:#FFFFFF;}
</style>
<desc>Created with Sketch.</desc>
<g id="Page-1" class="st0">
	<path id="Shape" class="st1" d="M34.9,54.1c-7.1,0-13.5-4.1-16.5-10.6l-0.8-1.6l1.8,0.2c5.9,0.7,11.9-1.4,16.1-5.6
		s6.3-10.2,5.6-16.1l-0.2-1.8l1.6,0.8c7.7,3.6,12,12.1,10.1,20.4C50.8,48.1,43.4,54.1,34.9,54.1L34.9,54.1z M21,44.2
		c0.7,1.1,1.5,2.2,2.4,3.1c4,4.3,10.1,6.1,15.8,4.6S49.4,46,50.9,40.3c1.5-5.7-0.3-11.8-4.6-15.8c-0.9-0.9-2-1.8-3.1-2.4
		c0.2,5.9-2.1,11.7-6.3,15.9l0,0C32.7,42.1,27,44.4,21,44.2z"/>
	<path id="Shape_1_" class="st1" d="M21,44.3l-1.8-0.2C8.3,42.9,0,33.6,0,22.6C0,13.9,5.3,6,13.3,2.6s17.4-1.5,23.6,4.7
		c3.5,3.5,5.7,8,6.2,12.9l0.2,1.8l-1.6-0.8c-6.2-2.9-13.4-1.6-18.3,3.2s-6.1,12.1-3.2,18.3L21,44.3z M21.6,3
		C13.7,3,6.5,7.8,3.5,15.1S2.1,30.9,7.8,36.5l0,0c2.7,2.7,6.2,4.6,10,5.3C15.5,35.3,17.1,28,22.1,23s12.2-6.6,18.8-4.3
		c-0.7-3.8-2.6-7.3-5.3-10C31.8,5,26.8,3,21.6,3z"/>
	<path id="Shape_2_" class="st1" d="M21.7,44.2c-0.8,0-1.6,0-2.5-0.1L18.6,44l-0.2-0.5C15.2,36.6,16.6,28.4,22,23l0,0
		c5.4-5.4,13.6-6.8,20.5-3.6l0.5,0.2l0.1,0.6c0.7,6.1-1.2,12.2-5.3,16.8S27.8,44.2,21.7,44.2z M20,42.2c5.7,0.5,11.4-1.6,15.5-5.7
		s6.2-9.7,5.7-15.5c-6.1-2.5-13-1.2-17.7,3.5S17.5,36.1,20,42.2z"/>
	<circle id="Oval" class="st1" cx="29.4" cy="34.6" r="1"/>
	<circle id="Oval_1_" class="st1" cx="33.2" cy="34.6" r="1"/>
	<circle id="Oval_2_" class="st1" cx="25.7" cy="34.6" r="1"/>
	<circle id="Oval_3_" class="st1" cx="33.2" cy="30.5" r="1"/>
	<circle id="Oval_4_" class="st1" cx="29.4" cy="30.5" r="1"/>
	<circle id="Oval_5_" class="st1" cx="25.7" cy="30.5" r="1"/>
	<circle id="Oval_6_" class="st1" cx="33.2" cy="26.4" r="1"/>
	<circle id="Oval_7_" class="st1" cx="29.4" cy="26.4" r="1"/>
	<circle id="Oval_8_" class="st1" cx="25.7" cy="26.4" r="1"/>
	<path id="Shape_3_" class="st1" d="M74.1,41.1v2.7h-4.8V18.7h4.8v10.6c1.2-1.9,3.3-3.1,5.5-3.1c4.2,0,7.5,3.1,7.5,8.9v0.3
		c0,5.7-3.2,8.9-7.5,8.9C77.4,44.4,75.2,43.1,74.1,41.1L74.1,41.1z M82.4,35.3V35c0-3.5-1.7-5.2-4.2-5.2S74,31.6,74,35.1v0.3
		c0,3.5,1.7,5.2,4.3,5.2C80.9,40.6,82.4,38.7,82.4,35.3L82.4,35.3z"/>
	<path id="Path" class="st1" d="M90.1,26.6h4.8v3.3c0.9-2.3,3.2-3.7,5.6-3.6v4.5c-3.5,0-5.6,1.1-5.6,4.4v8.7h-4.8V26.6z"/>
	<path id="Path_1_" class="st1" d="M103.3,26.6h4.8v3.3c0.9-2.3,3.2-3.7,5.6-3.6v4.5c-3.5,0-5.6,1.1-5.6,4.4v8.7h-4.8V26.6z"/>
	<path id="Shape_4_" class="st1" d="M116.3,21.6c-0.1-1.5,1.1-2.8,2.6-2.8c1.5-0.1,2.8,1.1,2.8,2.6c0.1,1.5-1.1,2.8-2.6,2.8H119
		C117.6,24.3,116.3,23.1,116.3,21.6z M116.7,26.6h4.8v17.3h-4.8V26.6z"/>
	<path id="Path_2_" class="st1" d="M125.5,26.6h4.8v2.7c1.1-2,3.3-3.3,5.6-3.1c3.4,0,5.8,2.1,5.8,6.7v11h-4.8V33.5
		c0-2.4-0.9-3.5-3-3.5c-1.9-0.1-3.5,1.3-3.6,3.2v0.6v10h-4.8V26.6z"/>
	<path id="Shape_5_" class="st1" d="M144.6,44.2h4.7c0.3,1.5,1.4,2.5,3.9,2.5c2.9,0,4.4-1.5,4.4-4.2v-2.6c-1.2,2-3.3,3.2-5.6,3.2
		c-4.2,0-7.5-3.1-7.5-8.3v-0.2c0-5,3.3-8.4,7.6-8.4c2.3-0.2,4.4,1,5.5,3v-2.5h4.8v15.9c0,5.1-3.4,7.8-9.1,7.8
		C147.5,50.2,145.1,47.8,144.6,44.2L144.6,44.2z M157.7,34.8v-0.2c0-2.9-1.6-4.7-4.2-4.7s-4.2,1.9-4.2,4.8V35
		c-0.1,2.9,1.7,4.7,4.1,4.7C155.8,39.7,157.7,37.7,157.7,34.8L157.7,34.8z"/>
</g>
</svg>
